<svg width="100" height="100" viewBox="0 0 100 100" fill="none" xmlns="http://www.w3.org/2000/svg">
<path d="M88 50C88 29 71 12 50 12C29 12 12 29 12 50C12 71 29 88 50 88C57.5 88 64.5 85.8 70.4 82L72.6 85.2C73.7 86.9 75.7 87.9 77.7 87.9C78.8 87.9 80 87.6 80.9 87C82.3 86.1 83.3 84.7 83.7 83.1C84.1 81.5 83.7 79.8 82.8 78.4L79.8 73.9C81.9 73.5 83.5 72 84.1 69.9C84.4 68.8 84.4 67.6 84.1 66.6C86.6 61.6 88 56 88 50ZM78.8 32H67.5C66.1 27 64.1 22.3 61.6 18C68.8 20.6 74.8 25.6 78.8 32ZM53.4 55.4L55.6 64H35.7C34.8 60.1 34.4 56.1 34.2 52H53.5C53.1 53.1 53.1 54.2 53.4 55.4ZM34.2 48C34.3 43.9 34.9 39.9 35.8 36H64.3C65.2 39.9 65.6 43.9 65.8 48H34.2ZM50 16C52 16 53.9 16.2 55.8 16.5C59.1 21 61.6 26.3 63.3 32H36.9C38.7 26.2 41.3 21 44.8 16.4C46.5 16.1 48.2 16 50 16ZM38.9 17.9C36.3 22.2 34.2 27 32.7 32H21.2C25.3 25.5 31.5 20.4 38.9 17.9ZM19 36H31.7C30.9 39.9 30.3 43.9 30.2 48H16.1C16.3 43.7 17.4 39.7 19 36ZM16.1 52H30.3C30.4 56.1 30.9 60.1 31.7 64H19C17.4 60.3 16.3 56.3 16.1 52ZM21.2 68H32.6C34 73 36 77.7 38.5 82C31.2 79.4 25.2 74.4 21.2 68ZM55.2 83.6C53.5 83.9 51.8 84 50 84C48 84 46.1 83.8 44.2 83.5C40.9 79 38.4 73.7 36.7 68H56.5L59 77.8C57.9 79.8 56.6 81.8 55.2 83.6ZM78.7 70.1L72.7 70.4L74.6 73.4L79.4 80.7C80.1 81.7 79.8 83.1 78.7 83.7C78.5 83.8 78.4 83.9 78.2 83.9H78.1C78 83.9 77.8 84 77.7 84C77.7 84 77.7 84 77.6 84C77.4 84 77.3 84 77.1 83.9H77C76.9 83.9 76.8 83.8 76.7 83.8C76.7 83.8 76.6 83.8 76.6 83.7C76.5 83.6 76.4 83.6 76.3 83.5L76.2 83.4C76.1 83.3 76 83.2 75.9 83L73.7 79.7L69 72.7L66.7 78.5C66.6 78.7 66.5 78.9 66.4 79L66.3 79.1C66.2 79.2 66.1 79.3 66 79.3C65.9 79.3 65.9 79.4 65.8 79.4C65.7 79.4 65.6 79.5 65.5 79.5C65.4 79.5 65.4 79.5 65.3 79.5C65.2 79.5 65.1 79.5 65.1 79.5C65.1 79.5 65.1 79.5 65 79.5C64.9 79.5 64.8 79.5 64.7 79.5C64.6 79.5 64.5 79.5 64.5 79.5C64.4 79.5 64.3 79.4 64.2 79.3C64.2 79.3 64.1 79.3 64.1 79.2C64 79.1 63.8 79 63.7 78.8C63.6 78.6 63.5 78.4 63.4 78.2L61.7 72L61.3 70.6L57.2 54.4C57.2 54.2 57.1 54.1 57.2 53.9V53.8C57.2 53.7 57.2 53.6 57.3 53.5V53.4C57.4 53.3 57.4 53.2 57.5 53C57.6 52.9 57.7 52.8 57.8 52.7C57.8 52.7 57.9 52.7 57.9 52.6C58 52.5 58.1 52.5 58.2 52.5H58.3C58.4 52.5 58.6 52.4 58.7 52.4C58.7 52.4 58.7 52.4 58.8 52.4C58.9 52.4 59 52.4 59.1 52.4C59.2 52.4 59.2 52.4 59.3 52.4C59.5 52.5 59.6 52.5 59.8 52.6L65.4 56.6L69.1 59.3L75.7 64L79.6 66.8C81 67.8 80.4 70 78.7 70.1ZM81.4 63.1L69.7 54.7C69.8 53.8 69.8 52.9 69.8 52H84C83.7 55.9 82.8 59.7 81.4 63.1ZM69.8 48C69.7 43.9 69.2 39.9 68.4 36H81C82.7 39.7 83.7 43.7 84 48H69.8Z" fill="#00FF00"/>
</svg>
